<?xml version="1.0" encoding="utf-8"?>
<!-- Generator: Adobe Illustrator 24.0.0, SVG Export Plug-In . SVG Version: 6.00 Build 0)  -->
<svg version="1.1" xmlns="http://www.w3.org/2000/svg" xmlns:xlink="http://www.w3.org/1999/xlink" x="0px" y="0px"
	 viewBox="0 0 841.9 595.3" enable-background="new 0 0 841.9 595.3" xml:space="preserve">
<g id="_x31_">
</g>
<g id="_x31__1_">
</g>
<g id="_x31__2_">
	<path fill-rule="evenodd" clip-rule="evenodd" fill="#FFB100" d="M545.9,449.5v65.1c0,9.7-1.8,18.9-5.4,27.4l0.1,0
		c-3.7,8.8-9.2,16.5-16.5,23c-6.5,5.8-14,10.2-22.4,13.2c-7.9,2.8-16.3,4.2-25.2,4.2h-90.7c-20.9,0-37.5-6.1-49.6-18.2l-0.1-0.1
		c-12.1-12.1-18.2-28.7-18.2-49.6v-65.1C360.4,449.5,512.2,449.5,545.9,449.5z"/>
	<path fill-rule="evenodd" clip-rule="evenodd" fill="#009999" d="M317.8,84.8c0-19.2,7.4-36.1,19.6-48.3
		c12.4-12.3,29.4-19.7,48.3-19.7h90.7c18.3,0,35.8,7.6,48.5,19.9c12.7,12.2,20.9,29.2,20.9,48.1v100.9h100.9
		c9.7,0,18.8,1.8,27.4,5.4l0-0.1c8.8,3.7,16.5,9.2,23,16.5v0.1c5.8,6.5,10.3,13.9,13.2,22.2c2.8,7.9,4.2,16.3,4.2,25.3v90.7
		c0,20.9-6.1,37.4-18.2,49.6l-0.1,0.1c-11.4,11.4-26.7,17.4-45.7,18.1h-162v-0.1h-3.6c-4,0-6.8-1.9-8.1-5.6
		c-4-11.2-7.9-22.5-11.6-33.7c-3.7-11.2-7.4-22.4-11-33.7c-3.6-11.2-7.3-22.5-11-33.7c-3.7-11.2-7.6-22.4-11.6-33.7L386.6,408
		c-1.4,3.8-3.9,5.6-7.7,5.6h-47.7c-3.7,0-5.5-1.4-5.5-4.1c0-1.3,1-3.9,1.5-5.2L402.2,208c0.8-2,1.6-3.9,2.5-5.8
		c0.8-1.9,1.8-3.7,2.9-5.5c1-2.1,3-3.1,6.1-3.1h36.6c1.5,0,2.8,0.5,4,1.5c1.2,1,2.2,2.2,3.1,3.7c0.9,1.4,1.7,3,2.4,4.6
		c0.7,1.7,1.3,3.2,1.8,4.6l57,148.5h128.4c5.3,0,8.4-0.5,9.2-1.3l0.1-0.1c0.9-0.9,1.3-4,1.3-9.2v-90.7c0-2.6-0.3-4.7-0.8-6.3v-0.1
		c-0.4-1.1-1-2.2-1.8-3c-0.9-0.8-1.8-1.5-2.7-1.9v-0.1c-1.2-0.5-2.9-0.7-5.3-0.7H510.2l-21.6-56.2V84.8c0-2.5-1.3-5-3.3-6.9
		c-2.4-2.3-5.6-3.8-9-3.8h-90.7c-3.4,0-6.1,1-7.8,2.8V77c-1.8,1.8-2.8,4.5-2.8,7.8v101.9l-21.5,56.2H217c-2.5,0-5,1.3-6.9,3.3
		c-2.3,2.4-3.8,5.6-3.8,8.9v90.7c0,3.3,1.1,6.1,2.8,7.9c1.8,1.7,4.5,2.8,7.9,2.8h84c11.4,0,9,2.7,4.9,13.4
		c-5.1,13.4-9,21.6-14.1,34.8c-3.9,10-5.9,8.6-21.3,8.6H217c-19.2,0-36.1-6.9-48.3-19.2V394c-12.3-12.3-19.6-29.3-19.6-48.2v-90.7
		c0-18.3,7.6-35.8,19.9-48.5c12.3-12.8,29.3-21,48-21h100.9V84.8z"/>
</g>
</svg>
